Coordinates
version=1
nRows=4
nColumns=107
inDegrees=yes

Units are S.I. units (second, meters, Newtons, ...)
If the header above contains a line with 'inDegrees', this indicates whether rotational values are in degrees (yes) or radians (no).

endheader
time	sternoclavicular_r2	sternoclavicular_r3	unrotscap_r3	unrotscap_r2	acromioclavicular_r2	acromioclavicular_r3	acromioclavicular_r1	unrothum_r1	unrothum_r3	unrothum_r2	elv_angle	shoulder_elv	shoulder1_r2	shoulder_rot	elbow_flexion	pro_sup	deviation	flexion	proximal_distal_r1	proximal_distal_r3	cmc_flexion	cmc_abduction	mp_flexion	ip_flexion	mcp2_flexion	mcp2_abduction	pm2_flexion	md2_flexion	mcp3_flexion	mcp3_abduction	pm3_flexion	md3_flexion	mcp4_flexion	mcp4_abduction	pm4_flexion	md4_flexion	mcp5_flexion	mcp5_abduction	pm5_flexion	md5_flexion	bicpt_tx	bicpt_ty	bicpt_tz	bicpt2_tx	bicpt2_ty	bicpt2_tz	ptpt_tx	ptpt_ty	ptpt_tz	FCUpt_tx	FCUpt_ty	FCUpt_tz	EDCpt_tx	EDCpt_ty	EDCpt_tz	APLpt_tx	APLpt_ty	APLpt_tz	FPLpt_tx	FPLpt_ty	FPLpt_tz	FPLpt2_tx	FPLpt2_ty	FPLpt2_tz	PEC1pt2_tx	PEC1pt2_ty	PEC1pt2_tz	PEC1pt3_tx	PEC1pt3_ty	PEC1pt3_tz	PEC2pt2_tx	PEC2pt2_ty	PEC2pt2_tz	PEC2pt3_tx	PEC2pt3_ty	PEC2pt3_tz	PEC3pt2_tx	PEC3pt2_ty	PEC3pt2_tz	PEC3pt3_tx	PEC3pt3_ty	PEC3pt3_tz	DELT2pt2a_tx	DELT2pt2a_ty	DELT2pt2a_tz	DELT2pt2_tx	DELT2pt2_ty	DELT2pt2_tz	LAT1pt2_tx	LAT1pt2_ty	LAT1pt2_tz	LAT1pt3_tx	LAT1pt3_ty	LAT1pt3_tz	LAT2pt2_tx	LAT2pt2_ty	LAT2pt2_tz	LAT2pt3_tx	LAT2pt3_ty	LAT2pt3_tz	LAT3pt2_tx	LAT3pt2_ty	LAT3pt2_tz	LAT3pt3_tx	LAT3pt3_ty	LAT3pt3_tz
      1.50000000	     -0.31469697	      0.13329078	     -0.13329078	      0.31469697	     -0.06371973	      0.51496048	      0.23147119	     -0.23147119	     -0.51496048	      0.06371973	    100.51099645	     74.50730459	     -1.75424782	    -34.84545063	     31.95815632	     85.74658584	      0.34660556	     -0.64380089	      0.37206089	     -0.32190045	     42.69171750	    -20.56140196	     12.21680763	      2.97616452	     84.49144668	     12.36625060	     78.53762354	     85.65017875	     91.18695973	     -1.32869108	     80.58942715	     55.37059154	     90.97282881	    -13.79573239	     89.78866916	     41.40011818	    101.41534725	    -14.31761036	     84.80607464	      5.49522248	      0.00095708	     -0.03126289	     -0.00489000	      0.01426603	     -0.01888159	     -0.00111939	      0.00121429	     -0.06899677	     -0.00695735	      0.01270890	     -0.18224631	      0.00007684	     -0.01028957	      0.00356412	     -0.00074910	      0.00031159	      0.00012464	      0.00062319	      0.00039884	      0.00119652	      0.00067304	     -0.00000597	     -0.00005475	     -0.00006570	      0.00244219	      0.00856835	      0.00596059	     -0.00798885	      0.01928913	     -0.01829570	      0.00244219	      0.00856835	      0.00596059	      0.00053811	      0.01788177	     -0.00939621	      0.00388461	      0.00476475	      0.01581074	      0.00000000	      0.00742195	      0.00000000	     -0.00699541	     -0.03232792	     -0.00611765	      0.02086899	     -0.00092563	     -0.00999400	     -0.00086925	      0.01457033	     -0.00596059	      0.00240079	      0.02102763	     -0.01738505	     -0.00583641	      0.01262486	     -0.00533969	     -0.01216954	      0.02665708	     -0.02984434	     -0.02284893	      0.01411501	     -0.00716099	     -0.01514983	      0.03079638	     -0.03729508
      1.53333333	     -0.31544474	      0.13360750	     -0.13360750	      0.31544474	     -0.06387114	      0.51618411	      0.23202121	     -0.23202121	     -0.51618411	      0.06387114	    100.28456686	     74.68434610	     -1.75029588	    -33.91021386	     31.93459965	     85.32110953	      0.35882649	     -0.61799644	      0.38159001	     -0.30899822	     42.65016647	    -20.51629807	     11.84277455	      3.09097779	     85.31413094	     12.30944882	     79.16712255	     85.32863836	     91.93267682	     -1.41262885	     80.87590428	     54.98764148	     92.04722322	    -13.81885556	     89.51079723	     41.67613482	    102.38369605	    -14.31953926	     84.66021956	      5.51607410	      0.00095630	     -0.03126019	     -0.00488956	      0.01430956	     -0.01887519	     -0.00119198	      0.00124573	     -0.06897644	     -0.00692307	      0.01266008	     -0.18226066	      0.00006527	     -0.01023851	      0.00354083	     -0.00073554	      0.00031247	      0.00012499	      0.00062494	      0.00039996	      0.00119988	      0.00067493	     -0.00000606	     -0.00005568	     -0.00006681	      0.00244799	      0.00858871	      0.00597475	     -0.00800783	      0.01933496	     -0.01833917	      0.00244799	      0.00858871	      0.00597475	      0.00053939	      0.01792426	     -0.00941853	      0.00389141	      0.00477607	      0.01582780	      0.00000000	      0.00745749	      0.00000000	     -0.00701204	     -0.03240474	     -0.00614717	      0.02050931	     -0.00089263	     -0.00949198	     -0.00087132	      0.01460495	     -0.00597475	      0.00240650	      0.02107760	     -0.01742636	     -0.00585028	      0.01265486	     -0.00535238	     -0.01219845	      0.02672042	     -0.02991526	     -0.02290322	      0.01414855	     -0.00717800	     -0.01518583	      0.03086956	     -0.03738370
      1.56666667	     -0.31566382	      0.13370029	     -0.13370029	      0.31566382	     -0.06391550	      0.51654260	      0.23218234	     -0.23218234	     -0.51654260	      0.06391550	    100.28415703	     74.73621428	     -1.75028873	    -33.79489637	     31.81444079	     85.14515421	      0.35718747	     -0.63459261	      0.38032656	     -0.31729630	     42.63513099	    -20.37930283	     11.65256120	      2.88134647	     86.46432126	     12.20963364	     79.71474569	     85.63333059	     93.30442403	     -1.55427695	     81.40057597	     55.97130248	     93.58373048	    -13.82085876	     90.74149387	     41.77526354	    104.12358776	    -14.30554185	     85.34894928	      5.49920232	      0.00095232	     -0.03124642	     -0.00488734	      0.01432743	     -0.01884255	     -0.00122192	      0.00125873	     -0.06896804	     -0.00690890	      0.01263991	     -0.18226658	      0.00006053	     -0.01021739	      0.00353122	     -0.00072997	      0.00031203	      0.00012481	      0.00062406	      0.00039940	      0.00119819	      0.00067398	     -0.00000609	     -0.00005602	     -0.00006722	      0.00244969	      0.00859467	      0.00597890	     -0.00801339	      0.01934839	     -0.01835191	      0.00244969	      0.00859467	      0.00597890	      0.00053976	      0.01793671	     -0.00942507	      0.00389340	      0.00477939	      0.01583278	      0.00000000	      0.00746792	      0.00000000	     -0.00701691	     -0.03242724	     -0.00615584	      0.02046398	     -0.00088858	     -0.00943087	     -0.00087192	      0.01461509	     -0.00597890	      0.00240817	      0.02109224	     -0.01743846	     -0.00585434	      0.01266365	     -0.00535610	     -0.01220693	      0.02673898	     -0.02993603	     -0.02291913	      0.01415837	     -0.00718299	     -0.01519638	      0.03089099	     -0.03740966
      1.60000000	     -0.31548229	      0.13362341	     -0.13362341	      0.31548229	     -0.06387875	      0.51624556	      0.23204883	     -0.23204883	     -0.51624556	      0.06387875	    100.11746060	     74.69323639	     -1.74737933	    -33.64828743	     32.14593634	     85.41495183	      0.35758667	     -0.63547563	      0.38063457	     -0.31773781	     42.49049415	    -20.23797469	     11.56886073	      2.85377676	     86.45111483	     12.11021475	     79.62073124	     85.58604326	     93.49550170	     -1.56856815	     81.45617341	     55.97762569	     93.79558228	    -13.83670073	     90.83724797	     41.78233287	    104.45187572	    -14.27213844	     85.50235191	      5.53637892	      0.00096329	     -0.03128442	     -0.00489346	      0.01430000	     -0.01893260	     -0.00117599	      0.00123880	     -0.06898093	     -0.00693063	      0.01267085	     -0.18225750	      0.00006781	     -0.01024977	      0.00354596	     -0.00073852	      0.00031199	      0.00012480	      0.00062399	      0.00039935	      0.00119805	      0.00067390	     -0.00000639	     -0.00005924	     -0.00007109	      0.00244828	      0.00858973	      0.00597546	     -0.00800878	      0.01933727	     -0.01834135	      0.00244828	      0.00858973	      0.00597546	      0.00053945	      0.01792639	     -0.00941965	      0.00389175	      0.00477664	      0.01582865	      0.00000000	      0.00745928	      0.00000000	     -0.00701287	     -0.03240859	     -0.00614866	      0.02040629	     -0.00088343	     -0.00935321	     -0.00087142	      0.01460669	     -0.00597546	      0.00240678	      0.02108011	     -0.01742844	     -0.00585098	      0.01265636	     -0.00535302	     -0.01219991	      0.02672360	     -0.02991882	     -0.02290595	      0.01415023	     -0.00717886	     -0.01518764	      0.03087323	     -0.03738815
